<?xml version="1.0" encoding="UTF-8"?>
<svg width="11px" height="11px" viewBox="0 0 11 11" version="1.1" xmlns="http://www.w3.org/2000/svg" xmlns:xlink="http://www.w3.org/1999/xlink">
    <!-- Generator: Sketch 47.1 (45422) - http://www.bohemiancoding.com/sketch -->
    <title>Cancel icon</title>
    <desc>Created with Sketch.</desc>
    <defs></defs>
    <g id="Page-1" stroke="none" stroke-width="1" fill="none" fill-rule="evenodd">
        <g id="Style-Guide" transform="translate(-423.000000, -3243.000000)" fill-rule="nonzero" fill="#D35847">
            <g id="Group-20" transform="translate(388.000000, 3209.000000)">
                <path d="M45.5795598,34.4207545 C45.0185538,33.8597485 44.1080864,33.8597485 43.5474396,34.4207545 L40.4999775,37.4678573 L37.4528747,34.4211136 C36.8918687,33.8601077 35.9817604,33.8601077 35.4207545,34.4211136 C34.8597485,34.9821196 34.8597485,35.8922279 35.4207545,36.4525155 L38.4682165,39.4996184 L35.4207545,42.5467212 C34.8597485,43.1077272 34.8597485,44.0178355 35.4207545,44.5781231 C35.9817604,45.1391291 36.8918687,45.1391291 37.4528747,44.5781231 L40.4999775,41.5313794 L43.5470804,44.5781231 C44.1080864,45.1391291 45.0181946,45.1391291 45.5792006,44.5781231 C46.1402066,44.0171172 46.1402066,43.1066497 45.5792006,42.5467212 L42.5317386,39.4996184 L45.5792006,36.4525155 C46.1402066,35.8911504 46.1402066,34.9814013 45.5795598,34.4207545 Z" id="Cancel-icon"></path>
            </g>
        </g>
    </g>
</svg>