<?xml version="1.0" encoding="UTF-8"?>
<svg width="30px" height="30px" viewBox="0 0 30 30" version="1.1" xmlns="http://www.w3.org/2000/svg" xmlns:xlink="http://www.w3.org/1999/xlink">
    <!-- Generator: Sketch 47.1 (45422) - http://www.bohemiancoding.com/sketch -->
    <title>Circle Check icon</title>
    <desc>Created with Sketch.</desc>
    <defs></defs>
    <g id="Page-1" stroke="none" stroke-width="1" fill="none" fill-rule="evenodd">
        <g id="Settings" transform="translate(-835.000000, -446.000000)" fill-rule="nonzero" fill="#6BAF1C">
            <g id="Circle-Check-icon" transform="translate(835.000000, 446.000000)">
                <path d="M15,0 C6.71590909,0 0,6.71556818 0,15 C0,23.2844318 6.71590909,30 15,30 C23.2840909,30 30,23.2844318 30,15 C30,6.71556818 23.2840909,0 15,0 Z M15,27.2727273 C8.22204545,27.2727273 2.72727273,21.7779545 2.72727273,15 C2.72727273,8.22204545 8.22204545,2.72727273 15,2.72727273 C21.7779545,2.72727273 27.2727273,8.22204545 27.2727273,15 C27.2727273,21.7779545 21.7779545,27.2727273 15,27.2727273 Z M18.6228409,11.3079545 L13.8013636,16.1290909 L11.8731818,14.2009091 C11.3406818,13.6684091 10.4775,13.6684091 9.94465909,14.2009091 C9.41215909,14.7334091 9.41215909,15.5969318 9.94465909,16.1297727 L12.8369318,19.0210227 C13.3694318,19.5535227 14.2332955,19.5535227 14.7654545,19.0210227 L20.5510227,13.2357955 C21.0835227,12.7032955 21.0842045,11.8401136 20.5513636,11.3072727 C20.0192045,10.7757955 19.1553409,10.7757955 18.6228409,11.3079545 Z" id="Shape"></path>
            </g>
        </g>
    </g>
</svg>