<?xml version="1.0" encoding="UTF-8"?>
<svg width="19px" height="19px" viewBox="0 0 19 19" version="1.1" xmlns="http://www.w3.org/2000/svg" xmlns:xlink="http://www.w3.org/1999/xlink">
    <!-- Generator: Sketch 48.1 (47250) - http://www.bohemiancoding.com/sketch -->
    <title>Delete button icon</title>
    <desc>Created with Sketch.</desc>
    <defs></defs>
    <g id="Style-Guide" stroke="none" stroke-width="1" fill="none" fill-rule="evenodd" transform="translate(-200.000000, -3239.000000)">
        <g id="Group-12" transform="translate(170.000000, 3209.000000)" fill="#FFFFFF" fill-rule="nonzero">
            <path d="M39.5,30 C34.2567308,30 30,34.2567308 30,39.5 C30,44.7432692 34.2567308,49 39.5,49 C44.7432692,49 49,44.7432692 49,39.5 C49,34.2567308 44.7432692,30 39.5,30 Z M39.5,48.2692308 C34.6586538,48.2692308 30.7307692,44.3413462 30.7307692,39.5 C30.7307692,34.6586538 34.6586538,30.7307692 39.5,30.7307692 C44.3413462,30.7307692 48.2692308,34.6586538 48.2692308,39.5 C48.2692308,44.3413462 44.3413462,48.2692308 39.5,48.2692308 Z M43.3730769,35.7913462 C43.7932692,36.2115385 43.7932692,36.9057692 43.3730769,37.3442308 L41.1076923,39.6096154 L43.4278846,41.9298077 C43.8480769,42.35 43.8480769,43.0442308 43.4278846,43.4826923 C43.0076923,43.9028846 42.3134615,43.9028846 41.875,43.4826923 L39.5548077,41.1625 L37.1798077,43.5557692 C36.7596154,43.9759615 36.0653846,43.9759615 35.6269231,43.5557692 C35.1884615,43.1355769 35.2067308,42.4413462 35.6269231,42.0028846 L38.0201923,39.6096154 L35.6817308,37.2894231 C35.2615385,36.8692308 35.2615385,36.175 35.6817308,35.7365385 C36.1019231,35.2980769 36.7961538,35.3163462 37.2346154,35.7365385 L39.5548077,38.0567308 L41.8201923,35.7913462 C42.2586538,35.3711538 42.9528846,35.3711538 43.3730769,35.7913462 Z M43.6288462,35.5355769 C43.0625,34.9692308 42.1307692,34.9692308 41.5644231,35.5355769 L39.5548077,37.5451923 L37.4903846,35.4807692 C36.9240385,34.9144231 35.9923077,34.9144231 35.4259615,35.4807692 C34.8596154,36.0471154 34.8596154,36.9788462 35.4259615,37.5451923 L37.4903846,39.6096154 L35.3711538,41.7471154 C34.8048077,42.3134615 34.8048077,43.2451923 35.3711538,43.8115385 C35.9375,44.3778846 36.8692308,44.3778846 37.4355769,43.8115385 L39.5548077,41.6923077 L41.6192308,43.7567308 C42.1855769,44.3230769 43.1173077,44.3230769 43.6836538,43.7567308 C44.25,43.1903846 44.25,42.2586538 43.6836538,41.6923077 L41.6192308,39.6096154 L43.6288462,37.6 C44.1951923,37.0336538 44.1951923,36.1019231 43.6288462,35.5355769 Z" id="Delete-button-icon"></path>
        </g>
    </g>
</svg>