<?xml version="1.0" encoding="UTF-8"?>
<svg width="19px" height="19px" viewBox="0 0 19 19" version="1.1" xmlns="http://www.w3.org/2000/svg" xmlns:xlink="http://www.w3.org/1999/xlink">
    <!-- Generator: Sketch 47.1 (45422) - http://www.bohemiancoding.com/sketch -->
    <title>logout icon</title>
    <desc>Created with Sketch.</desc>
    <defs></defs>
    <g id="Symbols" stroke="none" stroke-width="1" fill="none" fill-rule="evenodd">
        <g id="Top-menu-Dropdown" transform="translate(-1110.000000, -124.000000)" fill-rule="nonzero" fill="#000000">
            <g id="Settings-Copy" transform="translate(1110.000000, 124.000000)">
                <g id="logout-icon">
                    <path d="M11.875,19 L0.791666667,19 C0.316666667,19 0,18.6833333 0,18.2083333 L0,0.791666667 C0,0.316666667 0.316666667,0 0.791666667,0 L11.875,0 C12.35,0 12.6666667,0.316666667 12.6666667,0.791666667 L12.6666667,6.33333333 C12.6666667,6.80833333 12.35,7.125 11.875,7.125 C11.4,7.125 11.0833333,6.80833333 11.0833333,6.33333333 L11.0833333,1.58333333 L1.58333333,1.58333333 L1.58333333,17.4166667 L11.0833333,17.4166667 L11.0833333,12.6666667 C11.0833333,12.1916667 11.4,11.875 11.875,11.875 C12.35,11.875 12.6666667,12.1916667 12.6666667,12.6666667 L12.6666667,18.2083333 C12.6666667,18.6833333 12.35,19 11.875,19 Z" id="Shape"></path>
                    <path d="M18.2083333,10.2916667 L6.33333333,10.2916667 C5.85833333,10.2916667 5.54166667,9.975 5.54166667,9.5 C5.54166667,9.025 5.85833333,8.70833333 6.33333333,8.70833333 L18.2083333,8.70833333 C18.6833333,8.70833333 19,9.025 19,9.5 C19,9.975 18.6833333,10.2916667 18.2083333,10.2916667 Z" id="Shape"></path>
                    <path d="M18.2083333,10.2916667 C17.9708333,10.2916667 17.8125,10.2125 17.6541667,10.0541667 L14.4875,6.8875 C14.1708333,6.57083333 14.1708333,6.09583333 14.4875,5.77916667 C14.8041667,5.4625 15.2791667,5.4625 15.5958333,5.77916667 L18.7625,8.94583333 C19.0791667,9.2625 19.0791667,9.7375 18.7625,10.0541667 C18.6041667,10.2125 18.4458333,10.2916667 18.2083333,10.2916667 Z" id="Shape"></path>
                    <path d="M15.0416667,13.4583333 C14.8041667,13.4583333 14.6458333,13.3791667 14.4875,13.2208333 C14.1708333,12.9041667 14.1708333,12.4291667 14.4875,12.1125 L17.6541667,8.94583333 C17.9708333,8.62916667 18.4458333,8.62916667 18.7625,8.94583333 C19.0791667,9.2625 19.0791667,9.7375 18.7625,10.0541667 L15.5958333,13.2208333 C15.4375,13.3791667 15.2791667,13.4583333 15.0416667,13.4583333 Z" id="Shape"></path>
                </g>
            </g>
        </g>
    </g>
</svg>