<?xml version="1.0" encoding="UTF-8"?>
<svg width="13px" height="14px" viewBox="0 0 13 14" version="1.1" xmlns="http://www.w3.org/2000/svg" xmlns:xlink="http://www.w3.org/1999/xlink">
    <!-- Generator: Sketch 48.1 (47250) - http://www.bohemiancoding.com/sketch -->
    <title>@ Icon</title>
    <desc>Created with Sketch.</desc>
    <defs></defs>
    <g id="Style-Guide" stroke="none" stroke-width="1" fill="none" fill-rule="evenodd" transform="translate(-965.000000, -3242.000000)">
        <g id="Group-8" transform="translate(931.000000, 3209.000000)" fill="#666666" fill-rule="nonzero">
            <path d="M43.5311694,46.1276248 C42.4419385,46.707579 41.3318223,46.9285714 40.0039397,46.9285714 C36.7543387,46.9285714 34,44.526672 34,40.6844928 C34,36.561942 36.8333572,33 41.2335148,33 C44.681327,33 47,35.4416646 47,38.7836888 C47,41.7851562 45.3348921,43.5458416 43.4729033,43.5458416 C42.6789939,43.5458416 41.9464103,43.0056527 42.0062728,41.7852906 L41.9272543,41.7852906 C41.2336478,42.9657531 40.3218759,43.5458416 39.1327412,43.5458416 C37.9839139,43.5458416 36.9932565,42.6054481 36.9932565,41.0250496 C36.9932565,38.5433511 38.9342638,36.2815704 41.6886026,36.2815704 C42.540379,36.2815704 43.293848,36.4615885 43.8086652,36.7020606 L43.1358111,40.3243221 C42.8388932,41.8454758 43.0759486,42.5452629 43.7295137,42.5658172 C44.7410564,42.5854311 45.8705947,41.2248161 45.8705947,38.9035218 C45.8705947,36.0014674 44.1460235,33.9207796 41.0736155,33.9207796 C37.8450329,33.9207796 35.1294053,36.5017568 35.1294053,40.5647941 C35.1294053,43.9068184 37.2899083,45.9673549 40.221706,45.9673549 C41.3512443,45.9673549 42.4016311,45.7278232 43.2146965,45.2674334 L43.5311694,46.1276248 Z M42.4420715,37.4825872 C42.2434612,37.4222677 41.906369,37.3424686 41.4515472,37.3424686 C39.7072879,37.3424686 38.3002538,39.0037409 38.3002538,40.9444444 C38.3002538,41.8251901 38.7359195,42.4654638 39.6087143,42.4654638 C40.7576747,42.4654638 41.8079285,40.984344 42.0256948,39.7442336 L42.4420715,37.4825872 Z" id="@-Icon"></path>
        </g>
    </g>
</svg>