<?xml version="1.0" encoding="UTF-8"?>
<svg width="15px" height="15px" viewBox="0 0 15 15" version="1.1" xmlns="http://www.w3.org/2000/svg" xmlns:xlink="http://www.w3.org/1999/xlink">
    <!-- Generator: Sketch 48.1 (47250) - http://www.bohemiancoding.com/sketch -->
    <title>Telefoon icon</title>
    <desc>Created with Sketch.</desc>
    <defs></defs>
    <g id="Style-Guide" stroke="none" stroke-width="1" fill="none" fill-rule="evenodd" transform="translate(-856.000000, -3242.000000)" stroke-linecap="round" stroke-linejoin="round">
        <g id="Group-7" transform="translate(823.000000, 3209.000000)" stroke="#666666">
            <path d="M36.8854962,39.7845622 C37.7851242,41.6883152 39.3144534,43.2212404 41.2137405,44.1229838 L42.9465649,42.7992679 C43.1438178,42.594295 43.4431513,42.5252864 43.7099237,42.6232825 C44.5400692,42.8971908 45.4084772,43.0366695 46.2824427,43.0364655 C46.6690022,43.0590931 46.9774255,43.3682416 47,43.75571 L47,46.2807173 C46.9774255,46.6681857 46.6690022,46.9773342 46.2824427,46.9999618 C43.0277474,47.0080923 39.9035765,45.7178249 37.5992897,43.4138618 C35.2950029,41.1098988 33.9999899,37.981603 34,34.7192445 C34.0225745,34.3317761 34.3309978,34.0226276 34.7175573,34 L37.2442748,34 C37.6308343,34.0226276 37.9392576,34.3317761 37.9618321,34.7192445 C37.9611057,35.5953067 38.1002703,36.4658393 38.3740458,37.2978126 C38.4585198,37.5672094 38.3880933,37.861343 38.1908397,38.0629663 L36.8854962,39.7845622 Z" id="Telefoon-icon"></path>
        </g>
    </g>
</svg>