<?xml version="1.0" encoding="UTF-8"?>
<svg width="19px" height="21px" viewBox="0 0 19 21" version="1.1" xmlns="http://www.w3.org/2000/svg" xmlns:xlink="http://www.w3.org/1999/xlink">
    <!-- Generator: Sketch 47.1 (45422) - http://www.bohemiancoding.com/sketch -->
    <title>Settings icon</title>
    <desc>Created with Sketch.</desc>
    <defs></defs>
    <g id="Symbols" stroke="none" stroke-width="1" fill="none" fill-rule="evenodd" stroke-linecap="round" stroke-linejoin="round">
        <g id="Top-menu-Dropdown" transform="translate(-1109.000000, -84.000000)" stroke="#000000">
            <g id="Settings" transform="translate(1110.000000, 85.000000)">
                <g id="Settings-icon">
                    <path d="M15.3469565,9.5 C15.3459296,9.11248114 15.3118906,8.72577266 15.2452174,8.34416667 L17.3895652,6.52333333 L15.5895652,3.35666667 L12.96,4.33833333 C12.3651627,3.8320978 11.6870288,3.43551402 10.9565217,3.16666667 L10.4947826,0.395833333 L6.89478261,0.395833333 L6.40956522,3.16666667 C5.68733761,3.43800297 5.01733114,3.83447986 4.42956522,4.33833333 L1.8,3.3725 L0,6.52333333 L2.14434783,8.34416667 C2.00415321,9.10819702 2.00415321,9.89180298 2.14434783,10.6558333 L0,12.4766667 L1.8,15.6433333 L4.42956522,14.6695833 C5.01801096,15.1704936 5.68795872,15.5642571 6.40956522,15.8333333 L6.89478261,18.62 L10.4947826,18.62 L10.9565217,15.8333333 C11.6803355,15.5674892 12.3529566,15.1763896 12.9443478,14.6775 L15.573913,15.65125 L17.373913,12.4845833 L15.2295652,10.66375 C15.3019381,10.2800043 15.3412162,9.89062364 15.3469565,9.5 L15.3469565,9.5 Z" id="Shape"></path>
                    <ellipse id="Oval" cx="8.60869565" cy="9.5" rx="3.52173913" ry="3.5625"></ellipse>
                </g>
            </g>
        </g>
    </g>
</svg>