<?xml version="1.0" encoding="UTF-8"?>
<svg width="12px" height="14px" viewBox="0 0 12 14" version="1.1" xmlns="http://www.w3.org/2000/svg" xmlns:xlink="http://www.w3.org/1999/xlink">
    <!-- Generator: Sketch 48.1 (47250) - http://www.bohemiancoding.com/sketch -->
    <title>Text Icon</title>
    <desc>Created with Sketch.</desc>
    <defs></defs>
    <g id="Style-Guide" stroke="none" stroke-width="1" fill="none" fill-rule="evenodd" transform="translate(-748.000000, -3242.000000)">
        <g id="Group-6" transform="translate(714.000000, 3209.000000)" fill="#666666">
            <path d="M39.1102662,34.093415 C38.2129233,34.1362942 37.5171127,34.182746 37.0228137,34.2327718 C36.5285146,34.2827976 36.1520925,34.3935673 35.8935361,34.5650842 C35.6349797,34.7366012 35.4562743,34.9938727 35.3574144,35.3369066 C35.2585546,35.6799405 35.1634986,36.1658978 35.0722433,36.7947933 L34,36.8805513 C34.0456276,36.5089313 34.0912545,36.1158775 34.1368821,35.7013783 C34.1673005,35.3440513 34.2015207,34.9474243 34.2395437,34.5114855 C34.2775667,34.0755466 34.3117869,33.6288946 34.3422053,33.1715161 L34.5475285,33 L36.4410646,33.2358346 L43.513308,33.2358346 L45.4524715,33 L45.6577947,33.1715161 C45.6730039,33.6288946 45.7034218,34.0719734 45.7490494,34.5007657 C45.794677,34.929558 45.8326995,35.3154654 45.8631179,35.6584992 C45.9087455,36.0587054 45.9543724,36.4374663 46,36.7947933 L44.9277567,36.8805513 C44.806083,36.2373628 44.695818,35.7371126 44.5969582,35.3797856 C44.4980984,35.0224587 44.3231952,34.7544675 44.0722433,34.575804 C43.8212915,34.3971405 43.4638806,34.2827976 43,34.2327718 C42.5361194,34.182746 41.8935402,34.1362942 41.0722433,34.093415 C41.0266157,34.5222074 40.9809888,35.1439469 40.9353612,35.9586524 C40.8897336,36.7733578 40.8517112,37.670235 40.8212928,38.6493109 C40.7908744,39.6283867 40.7642587,40.6324604 40.7414449,41.661562 C40.7186311,42.6906636 40.7072243,43.6411391 40.7072243,44.5130168 C40.7072243,45.0418607 40.8060827,45.4170484 41.0038023,45.6385911 C41.2015219,45.8601338 41.5361193,45.9709035 42.0076046,45.9709035 L42.5437262,45.9709035 C42.7034229,45.9709035 42.8365014,45.9637571 42.9429658,45.949464 C43.0646394,45.9351709 43.1711022,45.9208781 43.2623574,45.906585 L43.3307985,45.992343 L43.1254753,46.9785605 C42.6844084,46.9785605 42.2585572,46.9714141 41.8479087,46.957121 C41.4980971,46.9428279 41.1292795,46.9321083 40.7414449,46.9249617 C40.3536102,46.9178152 40.0304195,46.914242 39.7718631,46.914242 C39.4828883,46.914242 39.1596976,46.9178152 38.8022814,46.9249617 C38.4448651,46.9321083 38.1064655,46.9428279 37.7870722,46.957121 L36.6463878,47 L36.8288973,46.0781011 C37.3612194,46.0352218 37.7794662,45.9816236 38.0836502,45.9173047 C38.3878342,45.8529859 38.6159688,45.7314966 38.7680608,45.5528331 C38.9201529,45.3741696 39.0152089,45.1204713 39.0532319,44.7917305 C39.0912549,44.4629897 39.1102662,44.0127645 39.1102662,43.4410413 L39.1102662,34.093415 Z" id="Text-Icon"></path>
        </g>
    </g>
</svg>