<?xml version="1.0" encoding="UTF-8"?>
<svg width="12px" height="12px" viewBox="0 0 12 12" version="1.1" xmlns="http://www.w3.org/2000/svg" xmlns:xlink="http://www.w3.org/1999/xlink">
    <!-- Generator: Sketch 47.1 (45422) - http://www.bohemiancoding.com/sketch -->
    <title>User icon</title>
    <desc>Created with Sketch.</desc>
    <defs></defs>
    <g id="Page-1" stroke="none" stroke-width="1" fill="none" fill-rule="evenodd" stroke-linecap="round" stroke-linejoin="round">
        <g id="Style-Guide" transform="translate(-639.000000, -3243.000000)" stroke="#000000">
            <g id="Group-5" transform="translate(605.000000, 3209.000000)">
                <path d="M40.0000414,39.611837 C38.7255381,39.611837 37.6923491,38.5794422 37.6923491,37.3059185 C37.6923491,36.0323949 38.7255381,35 40.0000414,35 C41.2745447,35 42.3077337,36.0323949 42.3077337,37.3059185 C42.3077337,38.5794422 41.2745447,39.611837 40.0000414,39.611837 Z M40.0000414,41.1491161 L40.0000414,41.1491161 C41.3827801,41.1894737 42.7368601,41.5527411 43.9538876,42.2098386 C44.5960871,42.5406068 44.9997381,43.201967 45.0000414,43.9239047 L45.0000414,44.2774789 C45.002096,44.4683931 44.9276333,44.652195 44.7932493,44.7879195 C44.6588653,44.9236441 44.4757289,45.000011 44.2846568,45 L35.715426,45 C35.5243539,45.000011 35.3412175,44.9236441 35.2068335,44.7879195 C35.0724496,44.652195 34.9979869,44.4683931 35.0000414,44.2774789 L35.0000414,43.9239047 C34.9974587,43.1992041 35.4015316,42.5341838 36.0461953,42.2021522 C37.2638822,41.5477308 38.6179262,41.1871054 40.0000414,41.1491161 Z" id="User-icon"></path>
            </g>
        </g>
    </g>
</svg>