<?xml version="1.0" encoding="UTF-8"?>
<svg width="10px" height="10px" viewBox="0 0 10 10" version="1.1" xmlns="http://www.w3.org/2000/svg" xmlns:xlink="http://www.w3.org/1999/xlink">
    <!-- Generator: Sketch 48.1 (47250) - http://www.bohemiancoding.com/sketch -->
    <title>Link/world icon</title>
    <desc>Created with Sketch.</desc>
    <defs></defs>
    <g id="Style-Guide" stroke="none" stroke-width="1" fill="none" fill-rule="evenodd" transform="translate(-531.000000, -3244.000000)">
        <g id="Group-4" transform="translate(496.000000, 3209.000000)" fill="#000000" fill-rule="nonzero">
            <path d="M45,40 C45,37.2428873 42.7561972,35.0000939 40.0001643,35 C40.0000469,35 39.9999531,35 39.9998357,35 C37.2421362,35.0000939 35,37.2446009 35,40 C35,42.7601878 37.2469249,45 40,45 C42.7574178,45 45,42.7558216 45,40 Z M35.6211033,40.3051643 L37.7570892,40.3051643 C37.7833099,40.9157746 37.888216,41.5121362 38.066784,42.0827465 L36.1367371,42.0827465 C35.8468075,41.5471362 35.6652582,40.9447653 35.6211033,40.3051643 Z M36.1367371,37.9172535 L38.066784,37.9172535 C37.888216,38.4878638 37.7833333,39.0842254 37.7570892,39.6948357 L35.6211033,39.6948357 C35.6652582,39.0552347 35.8468075,38.4528638 36.1367371,37.9172535 Z M44.3788967,39.6948357 L42.2429108,39.6948357 C42.2166901,39.0842254 42.111784,38.4878638 41.933216,37.9172535 L43.8632629,37.9172535 C44.1531925,38.4528638 44.3347418,39.0552347 44.3788967,39.6948357 Z M41.6322066,39.6948357 L40.3051643,39.6948357 L40.3051643,37.9172535 L41.2903286,37.9172535 C41.4871831,38.4844366 41.6033099,39.0816197 41.6322066,39.6948357 Z M40.3051643,37.3069249 L40.3051643,36.1094836 C40.5967606,36.4826761 40.8431925,36.8841315 41.0420188,37.3069249 L40.3051643,37.3069249 Z M39.6948357,37.3069249 L38.9579812,37.3069249 C39.1568075,36.884108 39.4032394,36.4826761 39.6948357,36.1094836 L39.6948357,37.3069249 Z M39.6948357,37.9172535 L39.6948357,39.6948357 L38.3677934,39.6948357 C38.3966901,39.0816197 38.5128169,38.4844366 38.7096714,37.9172535 L39.6948357,37.9172535 Z M38.3677934,40.3051643 L39.6948357,40.3051643 L39.6948357,42.0827465 L38.7096714,42.0827465 C38.5128169,41.5155634 38.3966901,40.9183803 38.3677934,40.3051643 Z M39.6948357,42.6930751 L39.6948357,43.8905164 C39.4032394,43.5173239 39.1568075,43.1158685 38.9579812,42.6930751 L39.6948357,42.6930751 Z M40.3051643,42.6930751 L41.0420188,42.6930751 C40.8431925,43.115892 40.5967606,43.5173239 40.3051643,43.8905164 L40.3051643,42.6930751 Z M40.3051643,42.0827465 L40.3051643,40.3051643 L41.6322066,40.3051643 C41.6033099,40.9183803 41.4871831,41.5155634 41.2903286,42.0827465 L40.3051643,42.0827465 Z M42.2429108,40.3051643 L44.3788967,40.3051643 C44.3347653,40.9447653 44.1531925,41.5471362 43.8632864,42.0827465 L41.9332394,42.0827465 C42.111784,41.5121362 42.2166667,40.9157746 42.2429108,40.3051643 Z M43.464061,37.3069249 L41.7100939,37.3069249 C41.4647887,36.723615 41.1384742,36.1742723 40.7371831,35.6725587 C41.8398122,35.8598122 42.8037089,36.4594601 43.464061,37.3069249 Z M39.2627934,35.6725587 C38.8615023,36.1742958 38.5352113,36.7236385 38.2899061,37.3069249 L36.5359624,37.3069249 C37.1962911,36.4594601 38.1601878,35.8598122 39.2627934,35.6725587 Z M36.535939,42.6930751 L38.2898826,42.6930751 C38.5351878,43.276385 38.8615023,43.8257277 39.2627934,44.3274413 C38.1601878,44.1401878 37.1962911,43.5405399 36.535939,42.6930751 Z M40.7372066,44.3274413 C41.1384977,43.8257042 41.4647887,43.2763615 41.7101174,42.6930751 L43.464061,42.6930751 C42.8037089,43.5405399 41.8398122,44.1401878 40.7372066,44.3274413 Z" id="Link/world-icon"></path>
        </g>
    </g>
</svg>