<svg id="Layer_1" data-name="Layer 1" xmlns="http://www.w3.org/2000/svg" viewBox="0 0 461.95 539.4"><title>logo-iav-circles</title><path d="M475.65,305.66a64.93,64.93,0,0,0,.1,129.86h.11a64.93,64.93,0,1,0-.21-129.86Z" transform="translate(-78.75 -40.45)"/><path d="M158.88,334.19a80.06,80.06,0,1,0-.13,0Z" transform="translate(-78.75 -40.45)"/><path d="M285.77,170.31h.11a65,65,0,1,0-.11,0Z" transform="translate(-78.75 -40.45)"/><path d="M342.44,211.36a55.87,55.87,0,0,0,.09,111.74h.09a55.87,55.87,0,0,0-.18-111.74Z" transform="translate(-78.75 -40.45)"/><path d="M268.23,359.39a110.23,110.23,0,0,0,.18,220.46h.18A110.37,110.37,0,0,0,378.64,469.42C378.54,408.75,329.09,359.39,268.23,359.39Z" transform="translate(-78.75 -40.45)"/></svg>